<?xml version="1.0" standalone="no"?><!DOCTYPE svg PUBLIC "-//W3C//DTD SVG 1.1//EN" "http://www.w3.org/Graphics/SVG/1.1/DTD/svg11.dtd"><svg t="1533347555750" class="icon" style="" viewBox="0 0 1024 1024" version="1.1" xmlns="http://www.w3.org/2000/svg" p-id="1031" xmlns:xlink="http://www.w3.org/1999/xlink" width="32" height="32"><defs><style type="text/css"></style></defs><path d="M642.894677 427.816692c0 29.734208-22.477944 53.527101-50.701752 53.527101-28.200272 0-51.124378-23.791869-51.124378-53.527101 0-29.268604 22.924105-53.067636 51.124378-53.067636 3.533476 0 6.620791 1.36816 10.154267 1.833765-25.564235-18.749016-56.871265-30.199813-90.348728-30.199813-87.283925 0-157.793816 74.120115-157.793816 165.626201 0 91.015923 70.50989 165.136038 157.793816 165.136038 87.260389 0 157.77642-74.120115 157.77642-165.136038 0-35.233456-11.031241-68.173682-29.097712-94.706989C641.569496 420.973844 642.894677 424.174746 642.894677 427.816692L642.894677 427.816692zM949.621501 495.990375c-73.597205-139.990335-247.244081-281.332457-437.623036-281.332457-190.400444 0-364.052436 141.342122-437.20348 281.332457l-8.809643 16.018835 8.809643 15.999392c73.151044 139.52473 246.802012 281.332457 437.20348 281.332457 190.378955 0 364.02583-141.807726 437.623036-281.332457l8.391111-15.999392L949.621501 495.990375 949.621501 495.990375zM511.998465 743.490282c-156.899446 0-305.438481-116.671233-373.308241-231.481072C206.559984 396.715347 355.099019 280.532231 511.998465 280.532231c156.873864 0 305.416991 116.183116 373.290845 231.476979C817.415456 626.819049 668.872329 743.490282 511.998465 743.490282L511.998465 743.490282zM511.998465 743.490282" p-id="1032" data-spm-anchor-id="a313x.7781069.0.i1" fill="#38b48b" class="selected"></path></svg>