<?xml version="1.0" standalone="no"?><!DOCTYPE svg PUBLIC "-//W3C//DTD SVG 1.1//EN" "http://www.w3.org/Graphics/SVG/1.1/DTD/svg11.dtd"><svg t="1533350792262" class="icon" style="" viewBox="0 0 1024 1024" version="1.1" xmlns="http://www.w3.org/2000/svg" p-id="2235" xmlns:xlink="http://www.w3.org/1999/xlink" width="32" height="32"><defs><style type="text/css"></style></defs><path d="M512 512m-512 0a512 512 0 1 0 1024 0 512 512 0 1 0-1024 0Z" fill="#FEB130" p-id="2236"></path><path d="M702.08 282.048c-3.2 0.64-10.752 5.312-14.08-1.344-7.36-53.312-65.28-84.672-107.968-51.328-0.768 0.576 2.624 2.944-3.328-1.984-53.952-44.8-102.016-20.032-113.536 8.448-3.968 9.728-10.688 17.28-25.28 13.12-48.768-14.08-76.736 1.92-87.488 31.296-5.632 15.68-6.528 33.536-6.72 50.432-0.64 67.136 3.648 156.608 3.648 221.824-33.728-16.768-66.176-29.568-98.944-30.336-44.928-0.96-86.592 36.864-89.088 71.168-1.92 27.968 6.528 51.584 53.12 87.488s78.848 57.408 120.32 92.48c17.536 14.912 72.512 63.552 130.432 77.44 42.944 10.432 105.728 8.576 130.816 8.576 130.56 0 182.848-86.144 202.688-184 7.424-36.8 8-84.544 7.296-122.88s-5.568-123.968-9.408-174.592c-4.672-70.72-33.28-108.544-92.544-95.808z" fill="#282F44" p-id="2237"></path><path d="M591.808 818.88c-23.04 0.384-71.68 1.856-121.536-12.544-48.96-14.144-98.816-63.488-123.52-83.008-41.92-32.96-85.952-64.192-129.088-95.68-10.432-7.68-21.888-17.6-22.976-30.848-1.28-15.488 13.44-28.992 25.984-34.816 11.968-5.568 33.472-7.296 46.72-4.032 24.832 6.208 48.32 20.288 71.488 31.232 39.104 18.496 43.904 11.328 43.968-31.232 0.064-80.128 0.32-151.36 0-231.488 0-17.536 7.872-42.88 29.76-43.52 24-0.64 29.952 17.664 29.824 36.352-0.32 47.68 0.32 95.808 0 143.488-0.128 18.304-3.584 36.608 20.608 36.8 24.064 0.256 20.032-17.92 19.968-36.288-0.32-64 0.32-116.48 0-180.288-0.128-18.56 7.488-46.4 31.744-46.08 24.128 0.448 36.48 17.28 36.48 35.52-0.256 63.872-5.568 126.464-5.76 190.336-0.128 18.752-2.048 36.992 22.144 36.224 21.952-0.704 19.712-18.24 19.584-35.712-0.32-56.768 0.32-110.272 0-167.104 1.472-21.568 6.016-42.304 27.968-42.88 24.192-0.512 28.928 24 28.864 42.624-0.32 57.792-4.224 113.664-1.856 171.392 0.448 11.008 4.8 31.936 23.744 32.192 21.12-0.32 18.688-20.672 19.84-32 1.664-32.896 1.28-73.408 0.96-106.944-0.192-18.56 7.744-41.024 32-40.64 22.016 0.32 31.424 22.4 32.704 40 4.928 67.84 8.96 139.84 8.512 206.656-0.384 66.752-0.128 82.56-5.056 106.688-20.864 80.64-77.696 144.192-163.072 145.6z" fill="#FFF5E2" p-id="2238"></path></svg>