<?xml version="1.0" standalone="no"?><!DOCTYPE svg PUBLIC "-//W3C//DTD SVG 1.1//EN" "http://www.w3.org/Graphics/SVG/1.1/DTD/svg11.dtd"><svg t="1533302761115" class="icon" style="" viewBox="0 0 1025 1024" version="1.1" xmlns="http://www.w3.org/2000/svg" p-id="2886" xmlns:xlink="http://www.w3.org/1999/xlink" width="32.03125" height="32"><defs><style type="text/css"></style></defs><path d="M644.516352 76.32384c24.064 44.04736-82.40128 57.22112-72.94464 88.96 1.1264 3.75808 5.632 7.83872 13.36832 16.2304 188.09344 110.90432 420.87936 487.34208 438.59456 695.18336 3.51744 41.28256-12.30848 87.2192-58.30656 87.2192-79.1296 0-158.25408 0-237.38368 0-20.66432-96.86016-125.44-344.64256-224.69632-347.23328-84.8384-2.21696-205.6448 270.7456-220.97408 347.23328-72.32 0-144.64512 0-216.96 0-55.76704 0-68.3776-60.45696-64.5888-101.6064C24.212992 606.78656 215.777792 358.912 409.999872 199.41888c14.75584-12.19072 25.66656-21.56544 27.60192-31.1808 7.9616-39.41376-105.5488-57.07776-64.05632-97.1264 29.39392-28.36992 87.66464 17.59744 112.22016 36.01408 10.73664 6.88128 17.1776 10.30656 22.47168 10.82368C546.529792 121.70752 613.801472 20.07552 644.516352 76.32384L644.516352 76.32384zM336.993792 963.92192c108.82048 1.37728 217.10848-0.62464 325.92896 0.75776-11.3408-75.62752-81.49504-274.16576-158.96064-274.88768C436.582912 689.16736 360.786432 899.67104 336.993792 963.92192z" p-id="2887" fill="#f4ea2a"></path></svg>