<?xml version="1.0" standalone="no"?><!DOCTYPE svg PUBLIC "-//W3C//DTD SVG 1.1//EN" "http://www.w3.org/Graphics/SVG/1.1/DTD/svg11.dtd"><svg t="1533127921497" class="icon" style="" viewBox="0 0 1024 1024" version="1.1" xmlns="http://www.w3.org/2000/svg" p-id="11725" xmlns:xlink="http://www.w3.org/1999/xlink" width="200" height="200"><defs><style type="text/css"></style></defs><path d="M512 142.336C322.56 142.848 168.618667 293.888 168.448 481.28c0 97.450667 41.813333 185.344 108.373333 246.954667l0 127.658667c0 9.386667 5.12 17.92 13.312 22.357333 8.192 4.608 18.090667 4.096 26.112-0.853333l108.373333-68.608c27.989333 7.168 57.173333 11.264 87.381333 11.264 189.44-0.341333 343.381333-151.381333 343.381333-338.944C855.381333 293.888 701.44 142.848 512 142.336zM512 769.024c-29.354667 0-57.685333-4.266667-84.48-12.288l-20.992 2.901333-78.506667 49.664 0-92.501333-8.874667-19.456c-61.098667-52.906667-99.498667-130.048-99.498667-216.405333 0.341333-158.549333 130.56-287.744 292.352-287.744S804.010667 322.730667 804.181333 481.28C804.010667 640 673.792 769.024 512 769.024z" p-id="11726" fill="#707070"></path><path d="M694.272 426.666667c0-11.776-9.557333-21.333333-21.333333-21.333333L351.061333 405.333333c-11.776 0-21.333333 9.557333-21.333333 21.333333 0 11.776 9.557333 21.333333 21.333333 21.333333l321.877333 0C684.714667 448 694.272 438.442667 694.272 426.666667z" p-id="11727" fill="#707070"></path><path d="M469.845333 507.733333l-120.490667 0c-11.776 0-21.333333 9.557333-21.333333 21.333333 0 11.776 9.557333 21.333333 21.333333 21.333333l120.490667 0c11.776 0 21.333333-9.557333 21.333333-21.333333C491.178667 517.290667 481.621333 507.733333 469.845333 507.733333z" p-id="11728" fill="#707070"></path><path d="M674.133333 507.733333l-102.4 0c-11.776 0-21.333333 9.557333-21.333333 21.333333 0 11.776 9.557333 21.333333 21.333333 21.333333l102.4 0c11.776 0 21.333333-9.557333 21.333333-21.333333C695.466667 517.290667 685.909333 507.733333 674.133333 507.733333z" p-id="11729" fill="#707070"></path></svg>