<?xml version="1.0" standalone="no"?><!DOCTYPE svg PUBLIC "-//W3C//DTD SVG 1.1//EN" "http://www.w3.org/Graphics/SVG/1.1/DTD/svg11.dtd"><svg class="icon" width="32px" height="32.00px" viewBox="0 0 1024 1024" version="1.1" xmlns="http://www.w3.org/2000/svg"><path d="M756.394426 809.518151 149.201623 809.518151 149.201623 372.407973l139.881037 0c0 0 34.28386-47.939601 103.863115-92.934909L102.490316 279.473064c-25.794179 0-46.711307 20.646181-46.711307 46.458423l0 530.045087c0 25.541295 20.917128 46.458423 46.711307 46.458423L803.08767 902.434997c25.776116 0 46.693244-20.682307 46.693244-46.458423L849.780914 590.863715l-93.386488 76.389063L756.394426 809.518151 756.394426 809.518151zM678.524184 435.141295l0 155.43341 311.372588-232.274052L678.524184 123.804833l0 145.209667c-376.580561 0-389.206703 399.68333-389.206703 399.68333C395.872006 494.767754 474.193826 435.141295 678.524184 435.141295L678.524184 435.141295zM678.524184 435.141295" fill="#515151" /></svg>