<?xml version="1.0" standalone="no"?><!DOCTYPE svg PUBLIC "-//W3C//DTD SVG 1.1//EN" "http://www.w3.org/Graphics/SVG/1.1/DTD/svg11.dtd"><svg t="1533302651290" class="icon" style="" viewBox="0 0 1057 1024" version="1.1" xmlns="http://www.w3.org/2000/svg" p-id="5369" xmlns:xlink="http://www.w3.org/1999/xlink" width="33.03125" height="32"><defs><style type="text/css"></style></defs><path d="M521.05 1.272c-5.383 2.196-20.512 18.283-20.512 21.966 0 1.222-23.684 51.481-52.72 111.55-29.035 60.053-53.941 112.508-55.395 116.654a52.521 52.521 0 0 1-4.393 10.025c-1.222 1.453-8.06 14.633-15.36 29.3-7.796 16.12-16.12 29.514-20.744 33.197-11.231 9.513-3.667 8.555-228.451 33.693C21.933 369.119 10.702 370.82 4.625 376.436c-4.394 3.897-6.111 18.085-2.94 26.36 0.99 2.18 44.66 43.701 97.148 92.258C264.787 648.324 254.05 637.59 254.05 649.051c0 5.615-3.402 25.864-7.333 45.386-4.162 19.522-13.411 68.36-20.976 108.627-7.564 40.266-16.35 86.412-19.522 102.499-16.846 85.917-17.077 88.361-8.29 97.627 8.29 8.786 17.804 7.795 42.941-4.89 23.42-11.957 25.633-13.162 71.746-40.265 16.847-9.778 38.813-22.462 48.822-28.078 10.009-5.615 28.54-16.566 40.993-24.146 12.453-7.565 23.189-13.676 23.915-13.676 0.496 0 8.06-4.377 16.583-9.76 8.522-5.385 16.35-9.745 17.341-9.745 0.991 0 9.778-4.906 19.523-10.984 23.188-14.402 43.206-21.735 54.668-19.505 4.889 0.99 16.582 5.615 25.864 10.735 24.411 12.933 178.176 101.525 226.007 130.065 40.762 24.41 52.72 29.035 66.626 25.369 9.282-2.197 11.958-15.608 8.787-42.199-1.454-11.958-3.667-25.402-4.89-30.043-1.948-7.779-10.008-50.985-29.53-159.38-9.018-51.498-9.018-52.489 11.23-60.053 28.078-10.504 41.258-19.753 36.138-24.906-1.717-1.702-17.342 0.28-49.78 6.11-60.283 10.967-72.736 12.685-136.423 18.565-72.472 6.854-139.363 8.307-228.715 5.12-69.797-2.445-152.774-8.54-157.432-11.463-3.666-2.444-1.949-9.992 3.667-14.88 2.94-2.693 40.035-29.317 82.25-59.294 132.294-93.712 218.211-155.714 225.28-162.32 12.19-11.462 11.231-11.958-39.54-18.564-80.3-10.24-101.276-11.958-232.117-18.085-43.702-1.933-83.241-4.377-87.866-5.12-47.83-8.044 195.98-30.01 298.975-26.839 67.617 1.949 147.192 7.564 194.032 13.675 43.701 5.847 46.377 6.326 46.377 11.231 0 3.882-4.625 7.333-107.388 78.072-42.215 29.3-87.14 60.284-99.824 69.087-12.453 8.787-25.368 17.804-28.308 19.753-13.676 9.266-59.557 41.241-72.242 50.49-8.06 5.863-14.402 12.206-14.402 14.17 0 4.625 11.958 7.582 48.822 11.959 97.874 11.478 279.948 17.804 288.008 9.794 1.718-1.735 1.454-7.07-1.222-18.3-1.949-8.556-3.667-16.615-3.667-17.805 0-3.451 41.489-44.923 98.833-98.6 151.552-142.04 154.987-145.491 154.987-156.722 0-9.761-8.06-18.548-20.017-21.471-5.847-1.454-40.762-5.385-77.626-9.018-36.864-3.419-77.626-7.333-90.31-8.539-12.685-1.453-39.54-4.162-59.789-6.342-77.361-7.812-101.045-10.736-106.66-13.428-10.736-4.889-20.745-24.906-94.704-191.34-52.72-119.114-57.344-128.627-64.678-135.2-6.077-5.616-15.59-7.812-22.197-5.12l0.033-0.033z" p-id="5370" fill="#f4ea2a"></path></svg>