<?xml version="1.0" standalone="no"?><!DOCTYPE svg PUBLIC "-//W3C//DTD SVG 1.1//EN" "http://www.w3.org/Graphics/SVG/1.1/DTD/svg11.dtd"><svg class="icon" width="32px" height="32.00px" viewBox="0 0 1024 1024" version="1.1" xmlns="http://www.w3.org/2000/svg"><path d="M583.53664 187.17696h126.04928a14.0032 14.0032 0 1 0 0-28.0064h-126.04928a13.99808 13.99808 0 0 0-14.0032 14.00832 13.99808 13.99808 0 0 0 14.0032 13.99808z m-238.08 112.04096h364.12928a14.0032 14.0032 0 1 0 0-28.0064H345.4464a14.0032 14.0032 0 1 0 0 28.0064z m378.13248 98.03264a13.99808 13.99808 0 0 0-14.0032-14.0032H345.4464a14.0032 14.0032 0 1 0 0 28.0064h364.1344a14.0032 14.0032 0 0 0 14.0032-14.0032z m226.11968-6.33344l-114.07872-47.8208v-237.9264c0-32.07168-26.09664-58.04544-58.1632-58.04544H277.57056c-32.07168 0-58.1632 25.97376-58.1632 58.04544v237.9264L115.0208 386.8672A58.04544 58.04544 0 0 0 79.36 440.50432v444.6464c0 32.0768 26.09664 58.29632 58.1632 58.29632h779.99104c32.07168 0 58.1632-26.2144 58.1632-58.29632V429.99296a42.28096 42.28096 0 0 0-25.96864-39.07584z m-114.07872-17.44384l95.72352 40.13568-95.72352 60.01152v-100.1472zM247.41888 105.16992c0-16.62976 13.52704-30.03392 30.1568-30.03392h499.88608c16.63488 0 30.1568 13.40416 30.1568 30.03392v386.01216l-264.08448 165.55008a30.32064 30.32064 0 0 1-32.03072 0L247.41888 491.18208V105.16992zM125.85984 412.6976l93.54752-39.2192v100.1472l-95.39584-59.8016c0.64512-0.33792 1.16736-0.83968 1.84832-1.1264z m821.8112 472.45312c0 16.64-13.52704 30.27968-30.1568 30.27968H137.5232c-16.62976 0-30.1568-13.6448-30.1568-30.27968V440.50432c0-1.28 0.39424-2.4576 0.54784-3.72224l388.70528 243.68128a58.1888 58.1888 0 0 0 30.89408 8.82176c10.752 0 21.51424-2.944 30.89408-8.82176l389.25824-244.0192v448.70656z" fill="#ffffff" /></svg>