<?xml version="1.0" standalone="no"?><!DOCTYPE svg PUBLIC "-//W3C//DTD SVG 1.1//EN" "http://www.w3.org/Graphics/SVG/1.1/DTD/svg11.dtd"><svg t="1533348369168" class="icon" style="" viewBox="0 0 1024 1024" version="1.1" xmlns="http://www.w3.org/2000/svg" p-id="1064" xmlns:xlink="http://www.w3.org/1999/xlink" width="32" height="32"><defs><style type="text/css"></style></defs><path d="M860.48768 750.24896c-23.5008-38.4-153.20064-118.4512-153.20064-118.4512s35.23072 142.32064 58.72128 180.70016c23.5008 38.4 58.35776 41.23648 83.7376 25.75872 25.37984-15.4624 34.24256-49.6128 10.74176-88.00768z m-666.74688 0c-23.49568 38.39488-14.63296 72.54528 10.74176 88.00768 25.37472 15.46752 60.24192 12.64128 83.74272-25.75872 23.49056-38.37952 58.71104-180.70016 58.71104-180.70016s-129.69984 80.0512-153.19552 118.4512z" fill="#4d5aaf" p-id="1065"></path><path d="M763.59168 709.26848c-80.92672-127.04768-162.07872-195.97312-238.17216-195.97312-76.07808 0-153.44128 74.43456-238.62272 198.51264-65.36192 95.20128-56.77568 213.46304-26.9312 299.70944 49.70496-77.07136 146.99008-120.52992 268.4672-116.10112 118.75328 4.352 198.08256 47.50848 249.09824 120.92416l17.57184-27.35616c30.01856-87.30624 26.85952-188.2368-31.4112-279.71584z" fill="#4d5aaf" p-id="1066"></path><path d="M521.0624 209.1776v-0.6144h19.35872v0.24576c26.1376-3.12832 67.72224-24.43264 67.72224-24.43264 50.02752-31.16032 134.67648-53.5552 149.94944-57.44128v-0.59392C706.10944 55.92064 622.57152 10.24 528.32256 10.24c-94.23872 0-177.79712 45.696-229.76 116.1216v0.57344c15.0528 3.82976 99.83488 26.22976 149.94944 57.44128 0 0 47.09888 24.13568 72.5504 24.80128z m-240.14336 229.632l0.52736 0.06144c-0.05632-0.09728-0.10752-0.19968-0.16896-0.29696-0.10752 0.06656-0.19968 0.13824-0.3584 0.23552z m365.91104-46.4384c-49.37216-45.6704-72.56064-91.904-72.56064-91.904-2.89792-15.47264-19.34336-21.76512-19.34336-21.76512H501.71392s-16.4352 6.29248-19.34848 21.76512c0 0-23.168 46.2336-72.55552 91.904 0 0-56.56064 55.06048-128.36352 46.49984 49.42336 84.992 141.47072 142.15168 246.87104 142.15168 105.41056 0 197.44768-57.15968 246.88128-142.15168-71.79776 8.56064-128.36864-46.49984-128.36864-46.49984z m128.512 46.26944a1.44384 1.44384 0 0 0-0.13312 0.22528c0.10752-0.01024 0.21504-0.02048 0.3328-0.04096l-0.19968-0.18432z" fill="#4d5aaf" p-id="1067" data-spm-anchor-id="a313x.7781069.0.i1" class="selected"></path><path d="M615.38816 293.20704c-0.01536 36.06528 29.20448 65.31584 65.26976 65.3312 36.06528 0.02048 65.31584-29.19936 65.33632-65.26464v-0.06656c0.01536-36.06528-29.20448-65.31584-65.26464-65.33632-36.0704-0.01536-65.32096 29.20448-65.34144 65.26976v0.06656z" fill="#4d5aaf" p-id="1068"></path><path d="M475.11552 131.16928c-0.01536 29.38368 23.79264 53.2224 53.17632 53.23264 29.3888 0.01536 53.2224-23.79264 53.23776-53.17632v-0.05632c0.01536-29.38368-23.78752-53.2224-53.18144-53.23776-29.38368-0.01536-53.21728 23.79264-53.23264 53.17632v0.06144zM475.11552 460.08832c-0.01536 29.3888 23.79264 53.2224 53.17632 53.23776 29.3888 0.01536 53.2224-23.79264 53.23776-53.18144v-0.05632c0.01536-29.38368-23.78752-53.2224-53.18144-53.23264-29.38368-0.02048-53.21728 23.78752-53.23264 53.17632v0.05632z" fill="#4d5aaf" p-id="1069"></path><path d="M850.00192 150.51264c-136.89856-8.704-261.21216 60.46208-261.21216 60.46208-36.2752 18.8672-48.36864 19.34848-48.36864 19.34848h-24.192s-12.09344-0.4864-48.36864-19.34848c0 0-124.3136-69.16608-261.20192-60.46208 0 0-133.02272 3.8656-130.60096 62.88384 0 0 3.8656 60.4672 108.83072 137.856 0 0 67.23584 56.59648 157.20448 58.05056 0 0 99.16416 7.2448 140.27264-108.84096 0 0 5.3248-19.34848 21.76512-21.76512h48.37888c16.44544 2.41664 21.75488 21.76512 21.75488 21.76512 41.1136 116.08576 140.27264 108.84096 140.27264 108.84096 89.97376-1.4592 157.2096-58.05056 157.2096-58.05056 104.97024-77.3888 108.83072-137.856 108.83072-137.856 2.432-59.01312-130.57536-62.88384-130.57536-62.88384zM450.92864 288.37376c-5.31968 90.93632-106.4192 99.16928-106.4192 99.16928-45.4656 0-91.904-29.0304-91.904-29.0304C158.7712 294.66112 167.95648 237.58336 167.95648 237.58336c6.77888-65.30048 123.34592-45.952 123.34592-45.952C435.93728 205.66016 448.512 269.02528 448.512 269.02528c2.90304 14.02368 2.41664 19.34848 2.41664 19.34848z m353.11104 70.13376s-46.4384 29.0304-91.89888 29.0304c0 0-101.09952-8.22784-106.4192-99.16928 0 0-0.49152-5.3248 2.42176-19.34336 0 0 12.5696-63.36512 157.19936-77.39392 0 0 116.5824-19.34848 123.35104 45.952-0.01536 0 9.18528 57.07776-84.65408 120.92416z" fill="#4d5aaf" p-id="1070"></path><path d="M310.656 293.20704c-0.01536 36.06528 29.20448 65.31584 65.26976 65.3312 36.06528 0.02048 65.31584-29.19936 65.33632-65.26464v-0.06656c0.01536-36.06528-29.20448-65.31584-65.26976-65.33632S310.67648 257.0752 310.656 293.14048v0.06656z" fill="#4d5aaf" p-id="1071"></path><path d="M388.04992 267.81696a22.97856 22.97856 0 0 0 45.94688 0.03072v-0.03072a22.97856 22.97856 0 0 0-45.94688-0.03072v0.03072zM622.64832 267.81696a22.97344 22.97344 0 1 0 45.94688 0 22.97344 22.97344 0 0 0-45.94688 0z" fill="#4d5aaf" p-id="1072"></path><path d="M638.6176 551.10144c-135.25504 59.47904-237.20448-1.24928-237.20448-1.24928-29.66528-17.47968-42.0864 15.8208-42.0864 15.8208-11.8272 34.37056 18.23232 44.6464 18.23232 44.6464 67.36896 46.85312 158.08512 30.17728 158.8736 32.49152 160.98304-10.01984 164.7616-53.18144 164.7616-53.18144 22.13376-61.87008-62.57664-38.528-62.57664-38.528z" fill="#4d5aaf" p-id="1073"></path><path d="M382.2848 571.47392l7.90528-17.65376 17.664 7.9104-7.9104 17.65376-17.65888-7.9104z m32.06144 14.62784l6.84032-18.08896 18.0992 6.84032-6.84032 18.08896-18.0992-6.84032z m37.33504 10.59328l4.26496-18.87744 18.8672 4.25984-4.26496 18.88256-18.8672-4.26496z m39.95648 5.7856l1.41824-19.3024 19.3024 1.408-1.41824 19.30752-19.3024-1.41312z m41.10336-18.6624l19.3024-1.408 1.408 19.3024-19.29216 1.41824-1.41824-19.31264z m39.95136-4.08576l18.93888-3.9936 3.98848 18.91328-18.944 3.98848-3.98336-18.90816z m34.88256-8.24832l17.89952-7.3472 7.3472 17.89952-17.89952 7.3472-7.3472-17.89952z m33.67936-12.70272l17.90976-7.34208 7.33184 17.88928-17.90976 7.34208-7.33184-17.88928z" fill="#4d5aaf" p-id="1074"></path><path d="M770.18112 714.09152c-58.1888-14.74048-105.44128-60.60544-133.61664-94.38208h-56.06912c66.17088 143.58528 174.23872 181.39648 174.23872 181.39648-30.23872-55.65952 15.44704-87.0144 15.44704-87.0144z" fill="#4d5aaf" p-id="1075"></path><path d="M605.9008 650.93632l16.76288-9.66656 9.66144 16.74752-16.76288 9.67168-9.66144-16.75264z m19.43552 30.26944l15.49824-11.5712 11.58144 15.50336-15.49312 11.57632-11.58656-15.50848z m22.1696 27.6224l14.19264-13.14304 13.14816 14.19264-14.18752 13.14816-13.15328-14.19776z m24.66304 27.21792l13.16864-14.17216 14.1824 13.17376-13.17376 14.17216-14.17728-13.17376z m32.1024 25.8816l10.67008-16.13312 16.13312 10.66496-10.66496 16.13824-16.13824-10.67008z" fill="#4d5aaf" p-id="1076"></path></svg>