<?xml version="1.0" standalone="no"?><!DOCTYPE svg PUBLIC "-//W3C//DTD SVG 1.1//EN" "http://www.w3.org/Graphics/SVG/1.1/DTD/svg11.dtd"><svg t="1533518874675" class="icon" style="" viewBox="0 0 1024 1024" version="1.1" xmlns="http://www.w3.org/2000/svg" p-id="4459" xmlns:xlink="http://www.w3.org/1999/xlink" width="32" height="32"><defs><style type="text/css"></style></defs><path d="M990.982222 588.359846 898.412742 681.054016 898.337928 791.653597C898.288052 850.507038 850.531976 898.263114 791.678535 898.31299L681.428084 898.387804 588.43466 991.530856C546.115046 1033.925284 477.46101 1033.925284 435.116458 991.530856L342.39735 898.662121 232.121962 898.736934C173.268521 898.78681 125.587258 851.105548 125.637134 792.252107L125.711948 681.652525 32.593834 588.359846C-9.750718 545.965418-9.750718 477.186693 32.593834 434.792265L125.986265 341.250207 126.061078 232.695534C126.110954 173.842092 173.86703 126.086016 232.720471 126.03614L340.926014 125.961327 435.116458 31.621256C477.46101-10.773172 546.115046-10.773172 588.43466 31.621256L682.350787 125.68701 792.277044 125.612196C851.130486 125.56232 898.811748 173.243583 898.761872 232.097024L898.687059 342.347475 990.982222 434.792265C1033.301836 477.186693 1033.301836 545.965418 990.982222 588.359846ZM512.199503 225.214164C353.818908 225.214164 225.413667 353.619405 225.413667 512 225.413667 670.380595 353.818908 798.785836 512.199503 798.785836 670.580098 798.785836 798.985339 670.380595 798.985339 512 798.985339 353.619405 670.580098 225.214164 512.199503 225.214164ZM512.199503 723.97214C395.141006 723.97214 300.227363 629.058497 300.227363 512 300.227363 394.941503 395.141006 300.02786 512.199503 300.02786 629.258 300.02786 724.171643 394.941503 724.171643 512 724.171643 629.058497 629.258 723.97214 512.199503 723.97214Z" p-id="4460" fill="#f4ea2a"></path></svg>