<?xml version="1.0" standalone="no"?><!DOCTYPE svg PUBLIC "-//W3C//DTD SVG 1.1//EN" "http://www.w3.org/Graphics/SVG/1.1/DTD/svg11.dtd"><svg t="1533516926833" class="icon" style="" viewBox="0 0 1024 1024" version="1.1" xmlns="http://www.w3.org/2000/svg" p-id="2221" xmlns:xlink="http://www.w3.org/1999/xlink" width="32" height="32"><defs><style type="text/css"></style></defs><path d="M864.137059 175.707814h-70.868047V95.121428c0-18.434861-17.044188-33.43346-35.480073-33.43346h-2.232854c-18.432815 0-35.473933 14.997576-35.473933 33.43346v80.586386H307.627333V95.121428c0-18.434861-17.043165-33.43346-35.480073-33.43346h-2.232854c-18.434861 0-35.480073 14.997576-35.480072 33.43346v80.586386h-73.993225c-58.470693 0-95.80602 37.335327-95.80602 95.804996V863.325577c0 58.473763 37.335327 95.813183 95.80602 95.813183h703.696973c58.474786 0 95.813183-37.33942 95.813183-95.813183V271.514857c-0.002047-58.46967-37.341466-95.807043-95.812159-95.807043h-0.002047zM893.084345 889.890606H132.688022V416.359756H893.084345V889.890606z m0-543.963992H132.688022v-103.353926H893.084345v103.353926z" p-id="2222" fill="#ffffff"></path><path d="M421.800675 827.383994c5.954619 5.954619 13.756305 8.930393 21.559015 8.930393a30.433126 30.433126 0 0 0 15.263635-4.130064 30.481222 30.481222 0 0 0 7.516184-5.504364l308.547285-308.545238c11.906168-11.907191 11.906168-31.211862 0-43.117007-11.906168-11.906168-31.210839-11.906168-43.11803 0l-287.948131 287.948131-145.779178-145.779178c-11.906168-11.906168-31.209816-11.906168-43.117006 0-11.906168 11.907191-11.906168 31.209816 0 43.117007L421.800675 827.383994z" p-id="2223" fill="#ffffff"></path></svg>