<?xml version="1.0" standalone="no"?><!DOCTYPE svg PUBLIC "-//W3C//DTD SVG 1.1//EN" "http://www.w3.org/Graphics/SVG/1.1/DTD/svg11.dtd"><svg t="1533523989576" class="icon" style="" viewBox="0 0 1024 1024" version="1.1" xmlns="http://www.w3.org/2000/svg" p-id="6846" xmlns:xlink="http://www.w3.org/1999/xlink" width="32" height="32"><defs><style type="text/css"></style></defs><path d="M124.249 164.361h69.201l25.952-69.454 25.951 69.454h69.203l-56.228 43.414 25.958 78.134-64.882-47.75-64.874 47.75 25.948-78.134-56.229-43.414M295.756 390.52h49.666l18.625-49.852 18.627 49.852h49.662l-40.353 31.154 18.629 56.078-46.563-34.269-46.56 34.269 18.627-56.078-40.36-31.154M126.314 639.77h37.644l14.116-37.785 14.118 37.785h37.642l-30.585 23.611 14.119 42.502-35.296-25.976-35.288 25.976 14.115-42.502-30.585-23.611m0 0zM511.948 65.264c226.339 21.075 403.606 212.372 403.606 445.532 0 247.238-199.273 447.638-445.053 447.638-139.139 0-282.523-64.301-364.134-164.887 13.652 1.286 46.719 2.121 60.687 2.121 245.778 0 445.051-200.424 445.051-447.656 0.001-107.271-37.593-205.62-100.157-282.748m0 0z" fill="#707070" p-id="6847"></path></svg>