<?xml version="1.0" standalone="no"?><!DOCTYPE svg PUBLIC "-//W3C//DTD SVG 1.1//EN" "http://www.w3.org/Graphics/SVG/1.1/DTD/svg11.dtd"><svg t="1533520073799" class="icon" style="" viewBox="0 0 1024 1024" version="1.1" xmlns="http://www.w3.org/2000/svg" p-id="5219" xmlns:xlink="http://www.w3.org/1999/xlink" width="32" height="32"><defs><style type="text/css"></style></defs><path d="M901.12 942.08H122.88c-22.528 0-40.96-18.432-40.96-40.96V294.4c0-17.408 10.752-32.768 27.136-38.4 15.872-5.632 32.768-1.024 44.032 11.264l144.896 138.24 179.2-303.616c7.168-12.288 19.968-19.456 33.792-19.968 14.336-0.512 27.136 6.656 34.816 18.432l207.872 304.64 0.512-1.024 114.176-134.656c10.752-13.824 28.16-19.456 45.056-14.336 16.896 5.632 28.16 20.992 28.16 38.912V901.12c0.512 22.528-17.92 40.96-40.448 40.96zM122.88 294.912V901.12h778.24V294.912l-0.512 0.512L786.432 430.08c-7.68 10.24-19.968 16.384-33.28 15.872-13.312-0.512-25.6-7.168-32.768-18.432L512.512 122.88l-179.2 303.616c-6.656 11.264-18.432 18.944-31.744 19.968-12.8 1.024-25.088-4.096-33.792-13.312L122.88 294.912z" p-id="5220" fill="#707070"></path><path d="M512 563.2c-25.088 0-45.568-20.48-45.568-46.08s20.48-46.08 45.568-46.08 45.568 20.48 45.568 46.08-20.48 46.08-45.568 46.08z m0-51.2c-2.56 0-4.608 2.048-4.608 5.12s2.048 5.12 4.608 5.12 4.608-2.048 4.608-5.12-2.048-5.12-4.608-5.12z" p-id="5221" fill="#707070"></path></svg>