<?xml version="1.0" standalone="no"?><!DOCTYPE svg PUBLIC "-//W3C//DTD SVG 1.1//EN" "http://www.w3.org/Graphics/SVG/1.1/DTD/svg11.dtd"><svg t="1533348617410" class="icon" style="" viewBox="0 0 1024 1024" version="1.1" xmlns="http://www.w3.org/2000/svg" p-id="7832" xmlns:xlink="http://www.w3.org/1999/xlink" width="32" height="32"><defs><style type="text/css"></style></defs><path d="M929.384086 250.417353c0 0-246.892063 196.108446-267.714298 222.005256L661.669788 281.004999c0-21.246907-16.745383-38.464033-37.395702-38.464033L100.294241 242.540965c-20.652366 0-37.391608 17.217127-37.391608 38.464033l0 461.984886c0 21.243837 16.741289 38.468127 37.391608 38.468127l523.979846 0c20.652366 0 37.395702-17.22429 37.395702-38.468127L661.669788 553.973974c20.822235 22.441105 267.713274 223.499283 267.713274 223.499283 37.915541 0 31.264051-7.360641 31.264051-46.336328L960.647113 301.180504C960.648137 262.173095 967.30065 250.417353 929.384086 250.417353z" p-id="7833" fill="#d4237a"></path></svg>