<?xml version="1.0" standalone="no"?><!DOCTYPE svg PUBLIC "-//W3C//DTD SVG 1.1//EN" "http://www.w3.org/Graphics/SVG/1.1/DTD/svg11.dtd"><svg t="1533522521432" class="icon" style="" viewBox="0 0 1024 1024" version="1.1" xmlns="http://www.w3.org/2000/svg" p-id="6089" xmlns:xlink="http://www.w3.org/1999/xlink" width="32" height="32"><defs><style type="text/css"></style></defs><path d="M148.9454550000001 744.7272730000001L148.94545500000004 279.27272700000003l367.70908999999995-186.181818L884.3636359999999 279.2727269999999l8.526512829121202e-14 465.45454599999994-367.70909099999994 186.181818-367.70909000000006-186.18181799999996z m69.81818099999992-423.563637l8.526512829121202e-14 381.672728 297.8909090000001 148.94545399999998 297.89090999999996-148.94545400000004L814.545455 321.163636l-297.8909100000001-148.94545399999998-297.89090899999997 148.94545400000004z" fill="#707070" p-id="6090"></path><path d="M381.672727 512c-1.4210854715202004e-14-69.818182 55.85454499999997-130.327273 130.327273-130.32727300000002 69.818182-1.4210854715202004e-14 130.327273 55.85454499999997 130.32727300000002 130.327273s-55.85454499999997 130.327273-130.327273 130.32727300000002c-69.818182 1.4210854715202004e-14-130.327273-60.50909099999996-130.32727300000002-130.327273z m190.836364-4.263256414560601e-14c-7.105427357601002e-15-32.581818-27.927273000000007-55.854545-55.854546000000006-55.85454499999998s-60.509090999999984 27.927273000000007-60.50908999999998 55.85454500000001 27.927273000000007 55.854545 60.50909 55.85454499999998 55.854545-23.272727000000014 55.85454599999998-55.85454500000001z" fill="#707070" p-id="6091"></path></svg>