<?xml version="1.0" standalone="no"?><!DOCTYPE svg PUBLIC "-//W3C//DTD SVG 1.1//EN" "http://www.w3.org/Graphics/SVG/1.1/DTD/svg11.dtd"><svg t="1533348102772" class="icon" style="" viewBox="0 0 1211 1024" version="1.1" xmlns="http://www.w3.org/2000/svg" p-id="6700" xmlns:xlink="http://www.w3.org/1999/xlink" width="37.84375" height="32"><defs><style type="text/css"></style></defs><path d="M801.658 339.028c0-22.401-18.143-40.545-40.545-40.545-22.401 0-40.545 18.143-40.545 40.545v81.087c0 67.181-54.451 121.632-121.632 121.632-67.18 0-121.632-54.45-121.632-121.632v-81.087c0-22.401-18.143-40.545-40.545-40.545-22.401 0-40.545 18.143-40.545 40.545v81.087c0 111.961 90.757 202.718 202.718 202.718s202.718-90.757 202.718-202.718v-81.087zM983.68 879.154c-15.996 17.697-36.347 26.739-60.188 26.739h-649.411c-23.881 0-44.274-9.082-60.248-26.84-15.996-17.738-22.887-38.962-20.393-62.701l39.733-567.35c4.358-41.577 38.841-72.634 80.641-72.634h569.56c41.881 0 76.425 31.177 80.663 72.857l40.118 567.35c2.433 23.718-4.501 44.883-20.474 62.579v0z" p-id="6701" data-spm-anchor-id="a313x.7781069.0.i11" class="selected" fill="#d81e06"></path></svg>