<?xml version="1.0" standalone="no"?><!DOCTYPE svg PUBLIC "-//W3C//DTD SVG 1.1//EN" "http://www.w3.org/Graphics/SVG/1.1/DTD/svg11.dtd"><svg t="1533348422724" class="icon" style="" viewBox="0 0 1024 1024" version="1.1" xmlns="http://www.w3.org/2000/svg" p-id="1045" xmlns:xlink="http://www.w3.org/1999/xlink" width="32" height="32"><defs><style type="text/css"></style></defs><path d="M891.418 170.54c-13.007-1.478-114.199-12.65-201.734-12.65-75.848 0-126.697 15.855-145.457 25.521-5.579 2.549-20.026 9.718-32.987 20.922-12.957-11.205-27.403-18.369-32.984-20.922-18.759-9.666-69.61-25.521-145.46-25.521-87.533 0-188.728 11.173-201.732 12.65C94.499 171.355 65 201.354 65 238.115v547.21c0 36.902 29.723 66.988 66.486 67.58 0.294 0.01 0.595 0.018 0.893 0.018 1.121 0 2.277-0.072 3.457-0.224 9.762-1.247 61.366-7.664 118.745-11.65 100.998-7.021 139.514-1.041 153.48 3.146 0.057 0.018 0.115 0.033 0.174 0.048 0.253 0.073 0.508 0.145 0.765 0.21 0.17 0.042 0.342 0.085 0.511 0.125 0.195 0.046 0.393 0.088 0.591 0.128 0.234 0.049 0.47 0.094 0.706 0.134l0.213 0.045c6.604 1.099 16.469 4.35 26.913 7.796 21.131 6.966 47.429 15.633 73.308 15.633 21.796 0 45.863-6.897 69.144-13.569 16.356-4.69 33.272-9.535 42.521-9.535 3.017 0 5.9-0.559 8.561-1.575 116.535-16.38 252.616 8.606 253.989 8.864l2.2 0.41h2.236c37.266 0 67.589-30.321 67.589-67.59V238.115c-0.004-36.761-29.499-66.762-66.064-67.575zM430.231 812.519c-69.643-19.85-269.236 2.009-310.507 7.225-10.435-0.643-18.726-9.335-18.726-4.607V237.472c0-26.333 22.748-35.294 33.758-35.294h1.43l1.418-0.162c1.102-0.129 111.381-12.802 202.616-12.802 67.901 0 112.618 13.602 126.922 20.851l0.461 0.261 0.934 0.416c13.463 6.107 28.175 17.203 30.113 22.654V828.67c0 1.28 0.095 2.538 0.282 3.766-11.89-2.687-24.06-6.688-35.353-10.409-11.935-3.936-23.23-7.641-33.348-9.508z m488.945-11.935c0 10.408-8.007 18.983-18.182 19.889-21.691-3.852-158.428-26.487-279.479-8.141-0.948 0.143-1.873 0.342-2.772 0.588-15.054 1.191-32.471 6.182-50.776 11.425-10.707 3.068-22.189 6.353-32.92 8.715a24.8 24.8 0 0 0 0.265-3.615v-595.28c1.94-5.452 16.654-16.548 30.063-22.63l0.591-0.233 0.837-0.462c14.286-7.249 59.015-20.858 126.942-20.858 91.235 0 201.515 12.673 202.617 12.801l1.418 0.163h1.431c11.01 0 19.966 8.96 19.966 19.97v577.669h-0.001v-0.001z" p-id="1046" data-spm-anchor-id="a313x.7781069.0.i1" fill="#00a381" class="selected"></path><path d="M396.992 590.678c-1.689-0.759-41.792-18.541-78.583-18.541-54.266 0-74.851 5.603-94.759 11.026-3.075 0.836-5.98 1.627-9.046 2.406-8.161 2.082-13.091 10.383-11.012 18.544 2.08 8.162 10.38 13.095 18.542 11.014 3.308-0.844 6.468-1.705 9.529-2.537 18.801-5.117 36.561-9.953 86.746-9.953 30.182 0 65.764 15.72 66.11 15.875a15.208 15.208 0 0 0 6.229 1.337c5.825 0 11.389-3.355 13.923-9.016 3.446-7.69 0.007-16.71-7.679-20.155zM396.992 388.918c-1.689-0.756-41.792-18.541-78.583-18.541-54.266 0-74.851 5.605-94.759 11.025-3.075 0.84-5.98 1.629-9.046 2.408-8.161 2.081-13.091 10.382-11.012 18.543 2.08 8.161 10.38 13.095 18.542 11.013 3.308-0.842 6.468-1.704 9.529-2.534 18.801-5.119 36.561-9.955 86.746-9.955 30.182 0 65.764 15.718 66.11 15.874a15.239 15.239 0 0 0 6.229 1.336c5.825 0 11.389-3.359 13.923-9.019 3.446-7.683 0.007-16.709-7.679-20.15zM812.854 590.678c-1.691-0.759-41.792-18.541-78.583-18.541-54.266 0-74.851 5.603-94.758 11.026-3.077 0.836-5.98 1.627-9.046 2.406-8.161 2.082-13.09 10.383-11.012 18.544 2.08 8.162 10.38 13.095 18.542 11.014 3.308-0.844 6.468-1.705 9.528-2.537 18.8-5.117 36.562-9.953 86.747-9.953 30.182 0 65.765 15.72 66.11 15.875a15.208 15.208 0 0 0 6.229 1.337c5.825 0 11.389-3.355 13.924-9.016 3.442-7.69 0.004-16.71-7.681-20.155zM812.854 388.918c-1.691-0.756-41.792-18.541-78.583-18.541-54.266 0-74.851 5.605-94.758 11.025-3.077 0.84-5.98 1.629-9.046 2.408-8.161 2.081-13.09 10.382-11.012 18.543 2.08 8.161 10.38 13.095 18.542 11.013 3.308-0.842 6.468-1.704 9.528-2.534 18.8-5.119 36.562-9.955 86.747-9.955 30.182 0 65.765 15.718 66.11 15.874a15.239 15.239 0 0 0 6.229 1.336c5.825 0 11.389-3.359 13.924-9.019 3.442-7.683 0.004-16.709-7.681-20.15z" p-id="1047" fill="#00a381"></path></svg>