<?xml version="1.0" standalone="no"?><!DOCTYPE svg PUBLIC "-//W3C//DTD SVG 1.1//EN" "http://www.w3.org/Graphics/SVG/1.1/DTD/svg11.dtd"><svg t="1533348551343" class="icon" style="" viewBox="0 0 1024 1024" version="1.1" xmlns="http://www.w3.org/2000/svg" p-id="5186" xmlns:xlink="http://www.w3.org/1999/xlink" width="32" height="32"><defs><style type="text/css"></style></defs><path d="M512 8.192C233.472 8.192 8.192 233.472 8.192 512c0 278.528 225.28 503.808 503.808 503.808 278.528 0 503.808-225.28 503.808-503.808C1015.808 233.472 790.528 8.192 512 8.192z m0 966.656C256 974.848 49.152 768 49.152 512 49.152 256 256 49.152 512 49.152S974.848 256 974.848 512c0 256-206.848 462.848-462.848 462.848z" fill="#1afa29" p-id="5187" data-spm-anchor-id="a313x.7781069.0.i8" class=""></path><path d="M565.248 487.424l-86.016-141.312h14.336c55.296-4.096 94.208-20.48 120.832-51.2 22.528-26.624 28.672-53.248 28.672-94.208-2.048-38.912-6.144-47.104-14.336-34.816-8.192 12.288-55.296 32.768-96.256 43.008-51.2 10.24-75.776 18.432-102.4 32.768-34.816 20.48-53.248 47.104-51.2 71.68 2.048 6.144 43.008 67.584 92.16 137.216 51.2 69.632 92.16 129.024 94.208 131.072 2.048 4.096-6.144 4.096-28.672 2.048-75.776-6.144-145.408 34.816-178.176 98.304-8.192 18.432-10.24 30.72-10.24 53.248 0 53.248 28.672 94.208 79.872 118.784 20.48 8.192 55.296 10.24 71.68 10.24 6.144 0 49.152 0 79.872-16.384 83.968-40.96 118.784-118.784 83.968-190.464-8.192-16.384-51.2-92.16-98.304-169.984z" fill="#1afa29" p-id="5188" data-spm-anchor-id="a313x.7781069.0.i9" class="selected"></path></svg>